<?xml version="1.0" encoding="iso-8859-1"?>
<!-- Generator: Adobe Illustrator 18.1.1, SVG Export Plug-In . SVG Version: 6.00 Build 0)  -->
<svg version="1.1" id="Capa_1" xmlns="http://www.w3.org/2000/svg" xmlns:xlink="http://www.w3.org/1999/xlink" x="0px" y="0px"
	 viewBox="0 0 320.105 320.105" style="enable-background:new 0 0 320.105 320.105;" xml:space="preserve">
<g>
	<g>
		<path style="fill:#010002;" d="M249.283,172.263v-60.972c0-20.603-16.747-37.345-37.345-37.345H108.167
			c-20.603,0-37.35,16.741-37.35,37.345v56.398C45.15,174.651,0,194.634,0,211.996c0,13.706,20.962,25.7,59.036,33.777l1.838,0.386
			l1.164-1.469c12.048-14.974,53.988-25.433,102.021-25.433c45.911,0,87.395,9.91,100.857,24.133l1.224,1.251l1.702-0.397
			c33.711-8.028,52.264-19.466,52.264-32.254C320.1,199.279,284.066,180.868,249.283,172.263z M70.817,177.42v1.131
			C70.469,178.339,70.55,177.925,70.817,177.42z"/>
	</g>
</g>
<g>
</g>
<g>
</g>
<g>
</g>
<g>
</g>
<g>
</g>
<g>
</g>
<g>
</g>
<g>
</g>
<g>
</g>
<g>
</g>
<g>
</g>
<g>
</g>
<g>
</g>
<g>
</g>
<g>
</g>
</svg>
